<svg id="_ÎÓÈ_1" data-name="—ÎÓÈ_1" xmlns="http://www.w3.org/2000/svg" viewBox="0 0 200.76 180.69"><defs><style>.cls-1{fill:#42e8e0;}</style></defs><path class="cls-1" d="M104.16,35.73c0-2.74-.08-5.19,0-7.62.16-4.14,2.78-6.79,6.56-6.77s6.49,2.8,6.62,6.77c.09,2.44,0,4.88,0,7.65,1.31.07,2.44.17,3.56.17h44.81c13.1,0,20.26,10.29,15.65,22.63q-9.56,25.62-19.27,51.18c-3.9,10.26-12.68,16.41-23.63,16.47q-25.77.14-51.53,0c-10.86,0-19.63-6.08-23.45-16.21Q47.08,66.48,30.88,22.85c-.91-2.43-2-3.28-4.59-3.11-3.71.24-7.46.12-11.19,0-4.11-.09-6.78-2.67-6.88-6.46a6.47,6.47,0,0,1,6.64-6.73c6.4-.17,12.8-.11,19.2,0,3.36,0,5.5,1.84,6.66,5,2.69,7.41,5.43,14.82,8.34,22.15a4,4,0,0,0,2.85,2.11c16.75.14,33.5.12,50.25.12C102.67,36,103.19,35.85,104.16,35.73Zm.14,37.75c-2.53-2.63-4.27-4.6-6.18-6.41-3-2.83-6.84-2.87-9.41-.23s-2.58,6.29.23,9.18q8.48,8.72,17.18,17.19c2.83,2.75,6.32,2.77,9.15,0q8.83-8.56,17.41-17.4a6.23,6.23,0,0,0-.12-9.16c-2.57-2.48-6.37-2.39-9.15.34-1.86,1.82-3.58,3.78-5.37,5.68l-.78-.48V36.38h-13Z"/><path class="cls-1" d="M136.26,165.85a14.13,14.13,0,0,1,.28-28.25,14.13,14.13,0,1,1-.28,28.25Z"/><path class="cls-1" d="M81,165.86a14,14,0,0,1-14.25-14.09,14.15,14.15,0,0,1,28.3-.2A14,14,0,0,1,81,165.86Z"/></svg>