<svg xmlns="http://www.w3.org/2000/svg" xmlns:xlink="http://www.w3.org/1999/xlink" viewBox="0 0 346.22 289.2"><defs><style>.cls-1,.cls-9{mix-blend-mode:lighten;}.cls-1{opacity:0.5;fill:url(#_ÂÁ_Ï_ÌÌ_È_ËÂÌÚ_45);}.cls-2{fill:none;}.cls-3{isolation:isolate;}.cls-19,.cls-33,.cls-4{fill:#42e8e0;}.cls-5{fill:url(#_ÂÁ_Ï_ÌÌ_È_ËÂÌÚ_41);}.cls-13,.cls-6{fill:#24126a;}.cls-7{fill:#fff;}.cls-8{fill:#453c9e;opacity:0.51;}.cls-9{opacity:0.8;fill:url(#_ÂÁ_Ï_ÌÌ_È_ËÂÌÚ_48);}.cls-10{opacity:0.1;}.cls-11{clip-path:url(#clip-path);}.cls-12{fill:#9ffff8;}.cls-13,.cls-19{opacity:0.4;}.cls-14,.cls-16{opacity:0.3;}.cls-15{fill:url(#_ÂÁ_Ï_ÌÌ_È_ËÂÌÚ_54);}.cls-16,.cls-18{fill:#0f054c;}.cls-17{fill:url(#_ÂÁ_Ï_ÌÌ_È_ËÂÌÚ_55);}.cls-20{fill:url(#_ÂÁ_Ï_ÌÌ_È_ËÂÌÚ_54-2);}.cls-21{fill:url(#_ÂÁ_Ï_ÌÌ_È_ËÂÌÚ_55-2);}.cls-22{fill:url(#_ÂÁ_Ï_ÌÌ_È_ËÂÌÚ_54-3);}.cls-23{fill:url(#_ÂÁ_Ï_ÌÌ_È_ËÂÌÚ_55-3);}.cls-24{fill:url(#_ÂÁ_Ï_ÌÌ_È_ËÂÌÚ_54-4);}.cls-25{fill:url(#_ÂÁ_Ï_ÌÌ_È_ËÂÌÚ_55-4);}.cls-26{fill:#5351af;}.cls-27{fill:url(#_ÂÁ_Ï_ÌÌ_È_ËÂÌÚ_54-5);}.cls-28{fill:url(#_ÂÁ_Ï_ÌÌ_È_ËÂÌÚ_55-5);}.cls-29{fill:url(#_ÂÁ_Ï_ÌÌ_È_ËÂÌÚ_54-6);}.cls-30{fill:url(#_ÂÁ_Ï_ÌÌ_È_ËÂÌÚ_51);}.cls-31{fill:url(#_ÂÁ_Ï_ÌÌ_È_ËÂÌÚ_55-6);}.cls-32{fill:url(#_ÂÁ_Ï_ÌÌ_È_ËÂÌÚ_55-7);}.cls-33{opacity:0.2;}.cls-34{clip-path:url(#clip-path-2);}</style><radialGradient id="_ÂÁ_Ï_ÌÌ_È_ËÂÌÚ_45" cx="151.1" cy="148.42" r="227.21" gradientUnits="userSpaceOnUse"><stop offset="0" stop-color="#42e8e0"/><stop offset="0.11" stop-color="#37b6bf"/><stop offset="0.22" stop-color="#2c87a1"/><stop offset="0.34" stop-color="#235f87"/><stop offset="0.46" stop-color="#1c3f72"/><stop offset="0.58" stop-color="#162561"/><stop offset="0.71" stop-color="#121355"/><stop offset="0.85" stop-color="#10084e"/><stop offset="1" stop-color="#0f054c"/></radialGradient><linearGradient id="_ÂÁ_Ï_ÌÌ_È_ËÂÌÚ_41" x1="13.16" y1="158.37" x2="303.45" y2="158.37" gradientUnits="userSpaceOnUse"><stop offset="0" stop-color="#bcbeff"/><stop offset="0.15" stop-color="#a3a7f5"/><stop offset="0.39" stop-color="#8289e8"/><stop offset="0.61" stop-color="#6a73df"/><stop offset="0.82" stop-color="#5c66d9"/><stop offset="1" stop-color="#5761d7"/></linearGradient><linearGradient id="_ÂÁ_Ï_ÌÌ_È_ËÂÌÚ_48" x1="198.74" y1="199.44" x2="117.71" y2="91.91" xlink:href="#_ÂÁ_Ï_ÌÌ_È_ËÂÌÚ_45"/><clipPath id="clip-path"><path class="cls-1" d="M108.17,225.82,19.39,174.55c-4-2.29-3.47-6.28,1.11-8.92L192.82,66.16c4.58-2.64,11.5-2.93,15.46-.64l88.78,51.27c4,2.29,3.46,6.29-1.11,8.93L123.62,225.18C119.05,227.82,112.13,228.11,108.17,225.82Z"/></clipPath><linearGradient id="_ÂÁ_Ï_ÌÌ_È_ËÂÌÚ_54" x1="285.61" y1="229.56" x2="326.42" y2="253.12" gradientUnits="userSpaceOnUse"><stop offset="0" stop-color="#bcbeff"/><stop offset="0.23" stop-color="#aaadf8"/><stop offset="0.68" stop-color="#7c83e5"/><stop offset="1" stop-color="#5761d7"/></linearGradient><linearGradient id="_ÂÁ_Ï_ÌÌ_È_ËÂÌÚ_55" x1="280.5" y1="238.46" x2="331.93" y2="238.46" gradientUnits="userSpaceOnUse"><stop offset="0" stop-color="#e9e9fd"/><stop offset="0.36" stop-color="#d3d2f9"/><stop offset="0.71" stop-color="#c5c4f7"/><stop offset="1" stop-color="#c0bff6"/></linearGradient><linearGradient id="_ÂÁ_Ï_ÌÌ_È_ËÂÌÚ_54-2" x1="285.61" y1="199.52" x2="326.42" y2="223.08" xlink:href="#_ÂÁ_Ï_ÌÌ_È_ËÂÌÚ_54"/><linearGradient id="_ÂÁ_Ï_ÌÌ_È_ËÂÌÚ_55-2" x1="280.5" y1="208.42" x2="331.93" y2="208.42" xlink:href="#_ÂÁ_Ï_ÌÌ_È_ËÂÌÚ_55"/><linearGradient id="_ÂÁ_Ï_ÌÌ_È_ËÂÌÚ_54-3" x1="197.55" y1="256.21" x2="238.36" y2="279.77" xlink:href="#_ÂÁ_Ï_ÌÌ_È_ËÂÌÚ_54"/><linearGradient id="_ÂÁ_Ï_ÌÌ_È_ËÂÌÚ_55-3" x1="192.43" y1="265.11" x2="243.86" y2="265.11" xlink:href="#_ÂÁ_Ï_ÌÌ_È_ËÂÌÚ_55"/><linearGradient id="_ÂÁ_Ï_ÌÌ_È_ËÂÌÚ_54-4" x1="197.55" y1="223.99" x2="238.36" y2="247.55" xlink:href="#_ÂÁ_Ï_ÌÌ_È_ËÂÌÚ_54"/><linearGradient id="_ÂÁ_Ï_ÌÌ_È_ËÂÌÚ_55-4" x1="192.43" y1="232.9" x2="243.86" y2="232.9" xlink:href="#_ÂÁ_Ï_ÌÌ_È_ËÂÌÚ_55"/><linearGradient id="_ÂÁ_Ï_ÌÌ_È_ËÂÌÚ_54-5" x1="28.38" y1="97.22" x2="69.19" y2="120.78" xlink:href="#_ÂÁ_Ï_ÌÌ_È_ËÂÌÚ_54"/><linearGradient id="_ÂÁ_Ï_ÌÌ_È_ËÂÌÚ_55-5" x1="23.26" y1="106.13" x2="74.7" y2="106.13" xlink:href="#_ÂÁ_Ï_ÌÌ_È_ËÂÌÚ_55"/><linearGradient id="_ÂÁ_Ï_ÌÌ_È_ËÂÌÚ_54-6" x1="28.38" y1="67.94" x2="69.19" y2="91.5" xlink:href="#_ÂÁ_Ï_ÌÌ_È_ËÂÌÚ_54"/><linearGradient id="_ÂÁ_Ï_ÌÌ_È_ËÂÌÚ_51" x1="30.83" y1="66.35" x2="67.22" y2="87.36" gradientUnits="userSpaceOnUse"><stop offset="0.24" stop-color="#5761d7"/><stop offset="0.39" stop-color="#7a82e5"/><stop offset="0.55" stop-color="#979cf0"/><stop offset="0.7" stop-color="#acaff8"/><stop offset="0.85" stop-color="#b8bafd"/><stop offset="1" stop-color="#bcbeff"/></linearGradient><linearGradient id="_ÂÁ_Ï_ÌÌ_È_ËÂÌÚ_55-6" x1="23.26" y1="76.84" x2="74.7" y2="76.84" xlink:href="#_ÂÁ_Ï_ÌÌ_È_ËÂÌÚ_55"/><linearGradient id="_ÂÁ_Ï_ÌÌ_È_ËÂÌÚ_55-7" x1="24.05" y1="76.84" x2="73.91" y2="76.84" xlink:href="#_ÂÁ_Ï_ÌÌ_È_ËÂÌÚ_55"/><clipPath id="clip-path-2"><polygon class="cls-2" points="178.94 153.8 167.95 160.13 124.18 134.86 124.18 86.27 178.94 117.88 178.94 153.8"/></clipPath></defs><g class="cls-3"><g id="_ÎÓÈ_1" data-name="—ÎÓÈ_1"><path class="cls-4" d="M114.92,256.65a14.29,14.29,0,0,1-7-1.62L15.83,201.88C14,200.82,13,199.33,13,197.7c0-1.95,1.46-3.91,4-5.38L192.55,90.94c4.78-2.75,12-3,16.17-.66l92.07,53.15c1.84,1.07,2.86,2.55,2.86,4.18,0,1.95-1.46,3.92-4,5.39L124.06,254.37A18.75,18.75,0,0,1,114.92,256.65Zm-6.83-2c4,2.33,11.11,2,15.77-.66L299.44,152.66c2.42-1.4,3.81-3.24,3.81-5a4.57,4.57,0,0,0-2.66-3.83L208.53,90.63c-4-2.33-11.11-2-15.78.66L17.17,192.66c-2.42,1.4-3.81,3.24-3.81,5,0,1.48,1,2.84,2.66,3.84Z"/><path class="cls-5" d="M303.45,123.06l-13.22,2.28L208.62,78.22c-4.09-2.36-11.24-2.06-16,.67L36.54,169l-23.38,4v8.29h0c0,1.51.89,3,2.76,4L108,238.51c4.09,2.37,11.24,2.07,16-.66L299.54,136.48c2.55-1.47,3.86-3.34,3.9-5.13h0Z"/><path class="cls-6" d="M108,230.17,15.93,177c-4.1-2.37-3.58-6.49,1.14-9.22L192.65,66.43c4.73-2.73,11.88-3,16-.67l92.07,53.16c4.09,2.36,3.58,6.49-1.15,9.22L124,229.51C119.23,232.24,112.08,232.53,108,230.17Z"/><path class="cls-7" d="M299.54,128.14,124,229.51c-4.73,2.73-11.88,3-16,.66L15.93,177a5,5,0,0,1-2.72-3.49c-.25,1.7.63,3.36,2.72,4.56L108,231.25c4.09,2.36,11.24,2.06,16-.67L299.54,129.21c2.83-1.63,4.14-3.77,3.86-5.73C303.16,125.12,301.86,126.8,299.54,128.14Z"/><path class="cls-8" d="M108.17,228.11,19.39,176.84c-4-2.29-3.47-6.28,1.11-8.92L192.82,68.45c4.58-2.64,11.5-2.93,15.46-.64l88.78,51.27c4,2.29,3.46,6.28-1.11,8.93L123.62,227.47C119.05,230.11,112.13,230.4,108.17,228.11Z"/><path class="cls-9" d="M114.88,227.64a13.92,13.92,0,0,1-6.85-1.57L19.25,174.8a4.9,4.9,0,0,1-2.82-4.13c0-1.92,1.43-3.85,3.92-5.29L192.68,65.91c4.64-2.68,11.7-3,15.74-.64l88.78,51.28a4.87,4.87,0,0,1,2.82,4.12c0,1.92-1.43,3.85-3.93,5.29L123.77,225.43A18.34,18.34,0,0,1,114.88,227.64Zm-6.57-2.07c3.88,2.24,10.68,2,15.17-.64l172.33-99.46c2.31-1.34,3.64-3.09,3.64-4.8a4.35,4.35,0,0,0-2.53-3.63L208.13,65.77c-3.87-2.24-10.68-1.95-15.17.64L20.64,165.87C18.33,167.21,17,169,17,170.67a4.35,4.35,0,0,0,2.53,3.63Z"/><g class="cls-10"><path class="cls-1" d="M108.17,225.82,19.39,174.55c-4-2.29-3.47-6.28,1.11-8.92L192.82,66.16c4.58-2.64,11.5-2.93,15.46-.64l88.78,51.27c4,2.29,3.46,6.29-1.11,8.93L123.62,225.18C119.05,227.82,112.13,228.11,108.17,225.82Z"/><g class="cls-11"><path class="cls-12" d="M206.23,206.57c0-11.15-7.83-24.71-17.48-30.29-4.84-2.79-9.22-3.05-12.39-1.21h0l-3.3,1.93,1,.09c-1.74,2.14-2.76,5.28-2.76,9.29,0,11.15,7.83,24.71,17.49,30.28a14.8,14.8,0,0,0,9.06,2.32l-.07.88,3.35-2,0,0,.14-.08h0C204.34,215.93,206.23,212.05,206.23,206.57Z"/><ellipse class="cls-4" cx="185.4" cy="198.43" rx="14.28" ry="24.73" transform="translate(-74.38 119.29) rotate(-30)"/></g></g><path class="cls-13" d="M278.1,125.3a5.38,5.38,0,0,1-4.91,0c-1.36-.78-1.36-2,0-2.83a5.44,5.44,0,0,1,4.91,0C279.45,123.25,279.45,124.52,278.1,125.3Z"/><path class="cls-13" d="M259.36,111.66,269,117.2c1.17.68,1,1.86-.33,2.65h0a5.12,5.12,0,0,1-4.58.19l-9.6-5.55c-1.18-.68-1-1.86.33-2.64h0A5,5,0,0,1,259.36,111.66Z"/><path class="cls-13" d="M204.56,78.39l9.61,5.55c1.17.67,1,1.86-.33,2.64h0a5.09,5.09,0,0,1-4.58.19l-9.6-5.55c-1.18-.67-1-1.86.33-2.64h0A5.07,5.07,0,0,1,204.56,78.39Z"/><path class="cls-4" d="M278.1,121.86a5.44,5.44,0,0,1-4.91,0c-1.36-.78-1.36-2,0-2.83a5.38,5.38,0,0,1,4.91,0C279.45,119.81,279.45,121.08,278.1,121.86Z"/><path class="cls-4" d="M259.36,108.21l9.61,5.55c1.17.68,1,1.86-.33,2.64h0a5.09,5.09,0,0,1-4.58.19l-9.6-5.54c-1.18-.68-1-1.87.33-2.65h0A5.07,5.07,0,0,1,259.36,108.21Z"/><path class="cls-4" d="M204.56,75l9.61,5.54c1.17.68,1,1.86-.33,2.65h0a5.12,5.12,0,0,1-4.58.19l-9.6-5.55c-1.18-.68-1-1.86.33-2.64h0A5,5,0,0,1,204.56,75Z"/><g class="cls-14"><path class="cls-15" d="M331.93,242.94v-4.48l-1.24-.69c-.35,2.12-2.84,3.51-4.92,3.8l-14.17,8.29-6.19,2.23L285.67,241.9l.46-.26c-1.69-.79-2.6-2.59-3.51-4.24l-1.33.8-.79.22V243h0a3,3,0,0,0,1.73,2.43L302,256.86a9.28,9.28,0,0,0,8.4,0l19.78-11.42a3,3,0,0,0,1.73-2.38v-.12Z"/><path class="cls-16" d="M325.77,241.57l-14.17,8.29-5.39,1.94v6.06a8.59,8.59,0,0,0,4.21-1l19.78-11.42a3,3,0,0,0,1.73-2.38v-.12h0v-4.48l-1.13-.63h-.12C330.29,239.91,327.83,241.28,325.77,241.57Z"/><path class="cls-17" d="M302,252.31l-19.79-11.42c-2.31-1.34-2.31-3.52,0-4.85L302,224.62a9.28,9.28,0,0,1,8.4,0L330.2,236c2.31,1.33,2.31,3.51,0,4.85l-19.78,11.42A9.34,9.34,0,0,1,302,252.31Z"/><g class="cls-14"><path class="cls-18" d="M302,252.31l-19.79-11.42c-2.31-1.34-2.31-3.52,0-4.85L302,224.62a9.28,9.28,0,0,1,8.4,0L330.2,236c2.31,1.33,2.31,3.51,0,4.85l-19.78,11.42A9.34,9.34,0,0,1,302,252.31Z"/></g></g><path class="cls-4" d="M306.22,237.87a7.57,7.57,0,0,1-3.73-.89l-19.78-11.42a2.38,2.38,0,0,1,0-4.5l19.78-11.42a8.22,8.22,0,0,1,7.45,0l19.78,11.42a2.38,2.38,0,0,1,0,4.5L309.94,237A7.5,7.5,0,0,1,306.22,237.87Zm0-28.78a7.23,7.23,0,0,0-3.55.85l-19.78,11.42a2,2,0,0,0,0,3.9l19.78,11.42a7.88,7.88,0,0,0,7.11,0l19.78-11.42a2,2,0,0,0,0-3.9l-19.78-11.42A7.24,7.24,0,0,0,306.21,209.09Z"/><path class="cls-19" d="M331.93,218.93v-6.78l-1.24-.69c-.35,2.12-2.84,3.51-4.92,3.8l-14.17,8.29-6.19,2.23-19.74-10.19.46-.26c-1.69-.79-2.6-2.59-3.51-4.24l-1.33.8-.79.22V219h0a3,3,0,0,0,1.73,2.42L302,232.84a9.28,9.28,0,0,0,8.4,0l19.78-11.42a3,3,0,0,0,1.73-2.38v-.12Z"/><path class="cls-20" d="M331.93,212.9v-4.48l-1.24-.69c-.35,2.12-2.84,3.51-4.92,3.8l-14.17,8.29-6.19,2.23-19.74-10.18.46-.27c-1.69-.79-2.6-2.59-3.51-4.23l-1.33.79-.79.22V213h0a3,3,0,0,0,1.73,2.42L302,226.82a9.28,9.28,0,0,0,8.4,0L330.2,215.4a3,3,0,0,0,1.73-2.38v-.12Z"/><path class="cls-16" d="M325.77,211.53l-14.17,8.29-5.39,2v6a8.59,8.59,0,0,0,4.21-1L330.2,215.4a3,3,0,0,0,1.73-2.38v-.12h0v-4.48l-1.13-.63h-.12C330.29,209.87,327.83,211.25,325.77,211.53Z"/><path class="cls-21" d="M302,222.27l-19.79-11.42c-2.31-1.34-2.31-3.51,0-4.85L302,194.58a9.28,9.28,0,0,1,8.4,0L330.2,206c2.31,1.34,2.31,3.51,0,4.85l-19.78,11.42A9.28,9.28,0,0,1,302,222.27Z"/><path class="cls-7" d="M330.2,210.85l-19.78,11.42a9.28,9.28,0,0,1-8.4,0l-19.79-11.42a3.12,3.12,0,0,1-1.71-2.15,2.8,2.8,0,0,0,1.71,2.71L302,222.83a9.34,9.34,0,0,0,8.4,0l19.78-11.42a2.8,2.8,0,0,0,1.71-2.71A3.12,3.12,0,0,1,330.2,210.85Z"/><g class="cls-14"><path class="cls-22" d="M243.86,269.6v-4.49l-1.24-.69c-.35,2.12-2.84,3.51-4.92,3.8l-14.17,8.29-6.19,2.23L197.6,268.56l.46-.27c-1.69-.79-2.6-2.59-3.51-4.23l-1.33.79-.79.22v4.6h0a2.94,2.94,0,0,0,1.74,2.42L214,283.51a9.28,9.28,0,0,0,8.4,0l19.78-11.42a3,3,0,0,0,1.73-2.38v-.12Z"/><path class="cls-16" d="M237.7,268.22l-14.17,8.29-5.38,1.95v6.06a8.58,8.58,0,0,0,4.2-1l19.78-11.42a3,3,0,0,0,1.73-2.38v-.12h0v-4.49l-1.13-.63h-.12C242.23,266.57,239.77,267.94,237.7,268.22Z"/><path class="cls-23" d="M214,279l-19.78-11.42c-2.32-1.34-2.32-3.51,0-4.85L214,251.27a9.28,9.28,0,0,1,8.4,0l19.78,11.42c2.31,1.34,2.31,3.51,0,4.85L222.35,279A9.28,9.28,0,0,1,214,279Z"/><g class="cls-14"><path class="cls-18" d="M214,279l-19.78-11.42c-2.32-1.34-2.32-3.51,0-4.85L214,251.27a9.28,9.28,0,0,1,8.4,0l19.78,11.42c2.31,1.34,2.31,3.51,0,4.85L222.35,279A9.28,9.28,0,0,1,214,279Z"/></g></g><path class="cls-4" d="M218.15,262.34a7.57,7.57,0,0,1-3.73-.89L194.64,250a2.38,2.38,0,0,1,0-4.5l19.78-11.42a8.22,8.22,0,0,1,7.45,0l19.78,11.42a2.38,2.38,0,0,1,0,4.5l-19.78,11.42A7.5,7.5,0,0,1,218.15,262.34Zm-3.56-1.19a7.82,7.82,0,0,0,7.11,0l19.78-11.42a2,2,0,0,0,0-3.9L221.7,234.41a7.88,7.88,0,0,0-7.11,0l-19.78,11.42a2,2,0,0,0,0,3.9Z"/><path class="cls-19" d="M243.86,243.4v-6.78l-1.24-.68c-.35,2.11-2.84,3.5-4.92,3.79L223.53,248l-6.19,2.24L197.6,240.07l.46-.27c-1.69-.79-2.6-2.59-3.51-4.23l-1.33.79-.79.22v6.89h0a2.93,2.93,0,0,0,1.74,2.42L214,257.31a9.28,9.28,0,0,0,8.4,0l19.78-11.42a3,3,0,0,0,1.73-2.38v-.11Z"/><path class="cls-24" d="M243.86,237.38V232.9l-1.24-.69c-.35,2.11-2.84,3.5-4.92,3.79l-14.17,8.29-6.19,2.24L197.6,236.34l.46-.27c-1.69-.78-2.6-2.59-3.51-4.23l-1.33.79-.79.22v4.6h0a2.93,2.93,0,0,0,1.74,2.42L214,251.29a9.28,9.28,0,0,0,8.4,0l19.78-11.42a3,3,0,0,0,1.73-2.38v-.11Z"/><path class="cls-16" d="M237.7,236l-14.17,8.29-5.38,2v6.06a8.58,8.58,0,0,0,4.2-1l19.78-11.42a3,3,0,0,0,1.73-2.38v-.11h0V232.9l-1.13-.63h-.12C242.23,234.35,239.77,235.72,237.7,236Z"/><path class="cls-25" d="M214,246.74l-19.78-11.42c-2.32-1.34-2.32-3.51,0-4.85L214,219.05a9.28,9.28,0,0,1,8.4,0l19.78,11.42c2.31,1.34,2.31,3.51,0,4.85l-19.78,11.42A9.28,9.28,0,0,1,214,246.74Z"/><path class="cls-26" d="M218.15,244.67a6.86,6.86,0,0,1-3.37-.81l-15.46-8.92a2.17,2.17,0,0,1,0-4.09l15.46-8.92a7.46,7.46,0,0,1,6.73,0L237,230.85a2.17,2.17,0,0,1,0,4.09l-15.46,8.92A6.79,6.79,0,0,1,218.15,244.67Zm-3.2-1.11a7.05,7.05,0,0,0,6.39,0l15.45-8.92a1.83,1.83,0,0,0,0-3.49l-15.45-8.92a7.05,7.05,0,0,0-6.39,0l-15.45,8.92a1.83,1.83,0,0,0,0,3.49Z"/><path class="cls-7" d="M242.13,235.32l-19.78,11.42a9.28,9.28,0,0,1-8.4,0l-19.78-11.42a3.11,3.11,0,0,1-1.72-2.15,2.79,2.79,0,0,0,1.72,2.71L214,247.3a9.28,9.28,0,0,0,8.4,0l19.78-11.42a2.8,2.8,0,0,0,1.71-2.71A3.12,3.12,0,0,1,242.13,235.32Z"/><g class="cls-14"><path class="cls-27" d="M74.7,110.61v-4.48l-1.24-.69c-.35,2.11-2.84,3.51-4.92,3.8l-14.18,8.29-6.18,2.23L28.43,109.57l.46-.26c-1.69-.79-2.6-2.59-3.51-4.24l-1.33.79-.79.23v4.59h0A3,3,0,0,0,25,113.11l19.78,11.42a9.34,9.34,0,0,0,8.4,0L73,113.11a3,3,0,0,0,1.74-2.39.45.45,0,0,0,0-.11Z"/><path class="cls-16" d="M68.54,109.24l-14.18,8.29L49,119.47v6.06a8.58,8.58,0,0,0,4.2-1L73,113.11a3,3,0,0,0,1.74-2.39.45.45,0,0,0,0-.11h0v-4.48l-1.14-.63h-.11C73.06,107.58,70.6,109,68.54,109.24Z"/><path class="cls-28" d="M44.78,120,25,108.55c-2.32-1.33-2.32-3.51,0-4.85L44.78,92.28a9.34,9.34,0,0,1,8.4,0L73,103.7c2.32,1.34,2.32,3.52,0,4.85L53.18,120A9.28,9.28,0,0,1,44.78,120Z"/><g class="cls-14"><path class="cls-18" d="M44.78,120,25,108.55c-2.32-1.33-2.32-3.51,0-4.85L44.78,92.28a9.34,9.34,0,0,1,8.4,0L73,103.7c2.32,1.34,2.32,3.52,0,4.85L53.18,120A9.28,9.28,0,0,1,44.78,120Z"/></g></g><path class="cls-4" d="M49,106.29a7.68,7.68,0,0,1-3.73-.89L25.47,94a2.39,2.39,0,0,1,0-4.51L45.25,78.05a8.3,8.3,0,0,1,7.46,0L72.49,89.47a2.75,2.75,0,0,1,1.59,2.26A2.7,2.7,0,0,1,72.49,94L52.71,105.4A7.68,7.68,0,0,1,49,106.29Zm0-28.78a7.24,7.24,0,0,0-3.56.85L25.64,89.78a2,2,0,0,0,0,3.9L45.42,105.1a7.88,7.88,0,0,0,7.11,0L72.31,93.68a2,2,0,0,0,0-3.9L52.53,78.36A7.2,7.2,0,0,0,49,77.51Z"/><path class="cls-19" d="M74.7,87.34V80.57l-1.24-.69c-.35,2.12-2.84,3.51-4.92,3.8L54.36,92,48.18,94.2,28.43,84l.46-.26c-1.69-.79-2.6-2.59-3.51-4.24l-1.33.8-.79.22v6.89h0A3,3,0,0,0,25,89.84l19.78,11.42a9.28,9.28,0,0,0,8.4,0L73,89.84a3,3,0,0,0,1.74-2.38.49.49,0,0,0,0-.12Z"/><path class="cls-29" d="M74.7,81.32V76.84l-1.24-.69c-.35,2.12-2.84,3.51-4.92,3.8L54.36,88.24l-6.18,2.23L28.43,80.28l.46-.26c-1.69-.79-2.6-2.59-3.51-4.24l-1.33.8-.79.22v4.59h0A3,3,0,0,0,25,83.82L44.78,95.24a9.28,9.28,0,0,0,8.4,0L73,83.82a3,3,0,0,0,1.74-2.38.49.49,0,0,0,0-.12Z"/><path class="cls-16" d="M68.54,80,54.36,88.24,49,90.18v6.06a8.58,8.58,0,0,0,4.2-1L73,83.82a3,3,0,0,0,1.74-2.38.49.49,0,0,0,0-.12h0V76.84l-1.14-.63h-.11C73.06,78.29,70.6,79.66,68.54,80Z"/><path class="cls-30" d="M28.89,80,47.63,69.2a3,3,0,0,1,2.69,0L68.74,79.83l-.2.12c2.08-.29,4.57-1.68,4.92-3.8L52.79,64.66l-6-1.59L41.88,66l-16.5,9.83C26.29,77.43,27.2,79.23,28.89,80Z"/><path class="cls-16" d="M49,63.65l-2.21-.58L41.88,66l-16.5,9.83c.91,1.65,1.82,3.45,3.51,4.24L47.63,69.2A2.7,2.7,0,0,1,49,68.88Z"/><path class="cls-31" d="M44.78,90.69,25,79.27c-2.32-1.34-2.32-3.52,0-4.85L44.78,63a9.28,9.28,0,0,1,8.4,0L73,74.42c2.32,1.33,2.32,3.51,0,4.85L53.18,90.69A9.34,9.34,0,0,1,44.78,90.69Zm5.54-26a3,3,0,0,0-2.69,0L27.85,76.06a.83.83,0,0,0,0,1.56L47.63,89a3,3,0,0,0,2.69,0L70.1,77.62c.75-.43.75-1.13,0-1.55Z"/><path class="cls-7" d="M70.1,76.07,50.32,64.64a3,3,0,0,0-2.69,0L27.85,76.06c-.49.29-.65.7-.49,1.06a1.22,1.22,0,0,1,.49-.5L47.63,65.2a3,3,0,0,1,2.69,0L70.1,76.62a1.25,1.25,0,0,1,.5.5C70.76,76.76,70.6,76.35,70.1,76.07Z"/><path class="cls-7" d="M73,79.27,53.18,90.69a9.34,9.34,0,0,1-8.4,0L25,79.27a3.13,3.13,0,0,1-1.72-2.15A2.8,2.8,0,0,0,25,79.82L44.78,91.25a9.34,9.34,0,0,0,8.4,0L73,79.83a2.82,2.82,0,0,0,1.72-2.71A3.16,3.16,0,0,1,73,79.27Z"/><path class="cls-32" d="M45.34,90.36,25.56,78.94c-2-1.16-2-3,0-4.2L45.34,63.32a8,8,0,0,1,7.28,0L72.4,74.74c2,1.16,2,3.05,0,4.2L52.62,90.36A8,8,0,0,1,45.34,90.36Zm5.54-26a4.24,4.24,0,0,0-3.8,0L27.29,75.74a1.17,1.17,0,0,0,0,2.2L47.08,89.36a4.17,4.17,0,0,0,3.8,0L70.66,77.94a1.16,1.16,0,0,0,0-2.2Z"/><path class="cls-19" d="M50.32,64.64a3,3,0,0,0-2.69,0L27.85,76.06a.83.83,0,0,0,0,1.56L47.63,89a3,3,0,0,0,2.69,0L70.1,77.62c.75-.43.75-1.13,0-1.55Z"/><path class="cls-12" d="M206.23,133c0-11.15-7.83-24.71-17.48-30.28-4.84-2.79-9.22-3-12.39-1.22h0l-3.3,1.94,1,.09c-1.74,2.13-2.76,5.28-2.76,9.28,0,11.15,7.83,24.71,17.49,30.29a14.71,14.71,0,0,0,9.06,2.31l-.07.89,3.35-2,0,0,.14-.08h0C204.34,142.36,206.23,138.49,206.23,133Z"/><ellipse class="cls-4" cx="185.4" cy="124.86" rx="14.28" ry="24.73" transform="translate(-37.59 109.44) rotate(-30)"/><path class="cls-12" d="M165.38,84.81c6.47-9.08,8-24.66,3.35-34.81-2.32-5.08-5.74-7.84-9.38-8.18h0l-3.82-.34.73.63c-2.65.72-5.31,2.7-7.63,6-6.48,9.08-8,24.66-3.35,34.81,1.59,3.49,3.7,5.88,6,7.14l-.57.68,3.87.35h.2C158.4,91.33,162.2,89.28,165.38,84.81Z"/><ellipse class="cls-4" cx="153.15" cy="66.09" rx="24.73" ry="14.28" transform="translate(72.71 212.22) rotate(-84.51)"/><g class="cls-10"><path class="cls-12" d="M171.26,158.22c0-11.15-7.83-24.71-17.49-30.29-4.83-2.79-9.21-3.05-12.38-1.21h0l-3.3,1.93,1,.09c-1.75,2.14-2.76,5.28-2.76,9.29,0,11.15,7.83,24.71,17.48,30.28a14.82,14.82,0,0,0,9.07,2.32l-.08.88,3.36-2,0,0,.14-.08h0C169.36,167.58,171.26,163.7,171.26,158.22Z"/><ellipse class="cls-4" cx="150.43" cy="150.08" rx="14.28" ry="24.73" transform="translate(-54.89 95.33) rotate(-30)"/></g><path class="cls-19" d="M151.56,176.42c-12.06,0-24.12-2.66-33.31-8-8.93-5.15-13.85-12-13.85-19.33s4.92-14.18,13.85-19.33c18.37-10.61,48.25-10.6,66.62,0,8.93,5.16,13.85,12,13.85,19.33s-4.92,14.18-13.85,19.33l-.09-.15.09.15C175.69,173.76,163.62,176.42,151.56,176.42Zm0-54.23c-12,0-24,2.64-33.14,7.91-8.81,5.09-13.67,11.85-13.67,19s4.86,13.94,13.67,19c18.28,10.55,48,10.55,66.28,0h0c8.82-5.09,13.67-11.85,13.67-19s-4.85-13.94-13.67-19C175.56,124.83,163.56,122.19,151.56,122.19Z"/><path class="cls-33" d="M151.56,183.73c-15.31,0-30.61-3.36-42.27-10.09C98,167.1,91.73,158.4,91.73,149.13s6.24-18,17.56-24.5c23.31-13.46,61.23-13.46,84.54,0,11.32,6.53,17.56,15.24,17.56,24.5s-6.24,18-17.56,24.51C182.18,180.36,166.87,183.73,151.56,183.73Zm0-68.85c-15.25,0-30.49,3.35-42.1,10.05C98.25,131.4,92.08,140,92.08,149.13s6.17,17.73,17.38,24.2c23.22,13.41,61,13.41,84.2,0,11.21-6.48,17.38-15.07,17.38-24.21s-6.17-17.73-17.38-24.2C182.05,118.23,166.8,114.88,151.56,114.88Z"/><path class="cls-4" d="M151.56,170.66c-9.51,0-19-2.09-26.25-6.27-7-4.07-10.92-9.49-10.92-15.26s3.88-11.19,10.92-15.26c14.47-8.35,38-8.35,52.5,0,7.05,4.07,10.93,9.49,10.93,15.26s-3.88,11.19-10.93,15.26l-.08-.15.08.15C170.57,168.57,161.07,170.66,151.56,170.66Zm0-42.71c-9.44,0-18.89,2.07-26.08,6.23-6.93,4-10.75,9.31-10.75,14.95s3.82,11,10.75,15c14.38,8.3,37.78,8.3,52.16,0,6.93-4,10.75-9.32,10.75-15s-3.82-10.95-10.75-14.95C170.45,130,161,128,151.56,128Z"/><g class="cls-34"><path class="cls-12" d="M171.26,158.22c0-11.15-7.83-24.71-17.49-30.29-4.83-2.79-9.21-3.05-12.38-1.21h0l-3.3,1.93,1,.09c-1.75,2.14-2.76,5.28-2.76,9.29,0,11.15,7.83,24.71,17.48,30.28a14.82,14.82,0,0,0,9.07,2.32l-.08.88,3.36-2,0,0,.14-.08h0C169.36,167.58,171.26,163.7,171.26,158.22Z"/><ellipse class="cls-4" cx="150.43" cy="150.08" rx="14.28" ry="24.73" transform="translate(-54.89 95.33) rotate(-30)"/></g><path class="cls-13" d="M104.6,206.46,49.68,174.75a2.43,2.43,0,0,1,0-4.21l8.38-4.88a9.05,9.05,0,0,1,9.06,0L122,197.37a2.43,2.43,0,0,1,0,4.21l-8.38,4.88A9.05,9.05,0,0,1,104.6,206.46Z"/><polygon class="cls-4" points="77.11 174.05 68.31 168.98 70.06 167.97 78.85 173.04 77.11 174.05"/><polygon class="cls-4" points="101.88 188.71 99.18 187.16 100.93 186.15 103.63 187.71 101.88 188.71"/><polygon class="cls-4" points="82.2 177.07 79.5 175.51 81.24 174.5 83.94 176.06 82.2 177.07"/><path class="cls-4" d="M109.13,200.14a9.31,9.31,0,0,1-4.63-1.23L49.58,167.2a2.63,2.63,0,0,1,0-4.55L58,157.77a9.28,9.28,0,0,1,9.26,0l54.92,31.7a2.64,2.64,0,0,1,0,4.56l-8.39,4.88A9.24,9.24,0,0,1,109.13,200.14ZM62.59,156.93a8.86,8.86,0,0,0-4.43,1.18L49.78,163a2.23,2.23,0,0,0,0,3.87l54.92,31.7a8.87,8.87,0,0,0,8.86,0l8.38-4.88a2.22,2.22,0,0,0,0-3.86L67,158.11A8.83,8.83,0,0,0,62.59,156.93Z"/></g></g></svg>